<svg width="64" height="64" viewBox="0 0 64 64" fill="none" xmlns="http://www.w3.org/2000/svg">
<g clip-path="url(#clip0_1887_4130)">
<path fill-rule="evenodd" clip-rule="evenodd" d="M27.4197 9.0624C25.4795 9.23774 22.4007 9.97859 20.3119 10.7729C15.0308 12.7813 10.3393 16.7235 7.70104 21.3699C4.43015 27.1305 3.89419 34.1855 6.2649 40.276C7.77072 44.1447 10.0863 47.2111 13.8247 50.2875C15.2017 51.4205 16.1565 52.1076 16.3541 52.1076C16.4812 52.1076 22.4243 46.2577 22.4243 46.1326C22.4243 46.1119 21.9263 45.726 21.3178 45.2751C18.7381 43.3641 17.3943 41.9803 16.0529 39.8538C14.7826 37.8399 14.1118 35.68 13.9949 33.2274C13.8629 30.4575 14.3632 28.0793 15.568 25.749C17.7106 21.605 21.9493 18.513 26.8387 17.5273C28.3938 17.2139 32.5346 17.2184 34.1223 17.5355C38.9532 18.5 43.1367 21.431 45.4274 25.4557C47.2997 28.7456 47.7268 33.3037 46.5037 36.9457C46.0234 38.3759 44.7868 40.7786 44.5308 40.7793C44.4822 40.7794 43.9653 40.3123 43.382 39.7411C42.7986 39.1699 41.1807 37.584 39.7867 36.2168L37.2521 33.7309L31.8933 33.7335L26.5344 33.7362L29.0695 36.2194C30.4638 37.5852 32.5702 39.6373 33.7505 40.7795C34.9307 41.9218 38.1149 45.0077 40.8267 47.6372C43.5384 50.2667 46.3721 53.0138 47.1239 53.7418L48.4906 55.0655L53.7229 55.0991C56.6783 55.1182 58.9853 55.084 59.0245 55.0209C59.0627 54.9594 58.7395 54.5781 58.3062 54.1736C56.9878 52.9429 51.337 47.4066 51.092 47.1055C50.8655 46.8273 50.8702 46.8134 51.4214 46.0986C53.9816 42.7789 55.6614 38.9147 56.059 35.4301C56.227 33.959 56.2266 30.6755 56.0583 29.3397C55.1434 22.0783 50.1574 15.3977 42.9549 11.7829C40.1386 10.3694 36.627 9.36146 33.49 9.06605C31.9584 8.92193 28.9958 8.92004 27.4197 9.0624ZM173.107 23.0215C171.104 23.2802 169.243 24.0684 168.081 25.1502C166.025 27.0641 165.811 30.305 167.612 32.2658C168.719 33.472 169.965 33.9853 174.245 35C176.937 35.6379 177.929 35.9905 178.458 36.4962C179.295 37.297 179.13 38.7552 178.125 39.4375C176.865 40.2927 173.945 40.3565 172.304 39.5648C171.491 39.1726 170.938 38.3986 170.816 37.4844C170.771 37.1506 170.728 36.8766 170.72 36.8753C170.257 36.8076 166.388 36.7444 166.162 36.8008C165.884 36.8703 165.836 36.9517 165.836 37.352C165.838 38.0766 166.261 39.2943 166.782 40.0762C167.72 41.4827 169.446 42.6016 171.59 43.1932C172.472 43.4366 172.917 43.4728 175.067 43.4766C177.87 43.4814 178.454 43.3743 180.214 42.5331C181.582 41.879 182.642 40.9046 183.19 39.7954C183.585 38.9986 183.604 38.8934 183.604 37.5098C183.604 36.1597 183.578 36.0073 183.232 35.3056C182.332 33.4804 180.954 32.7369 176.459 31.6506C173.858 31.022 172.548 30.6124 171.996 30.2549C170.552 29.3206 170.725 27.571 172.342 26.7481C173.057 26.384 173.158 26.3676 174.679 26.3689C176.077 26.3701 176.349 26.4061 176.934 26.6681C177.943 27.1199 178.605 28.0341 178.608 28.9794C178.608 29.181 178.801 29.1997 180.885 29.1997H183.161V28.818C183.161 28.2631 182.696 26.9654 182.244 26.2596C181.422 24.975 179.562 23.8094 177.51 23.2918C176.354 23.0004 174.264 22.8721 173.107 23.0215ZM60.9983 30.1751C61.0008 37.6313 61.0335 38.0289 61.7592 39.3839C62.8931 41.5012 65.164 42.9758 67.9862 43.4269C69.2147 43.6234 72.0133 43.5173 73.0735 43.2342C73.4908 43.1228 74.3723 42.7677 75.0323 42.4451C76.5907 41.6835 77.5882 40.7097 78.322 39.2331C78.793 38.2854 78.8465 38.0732 78.9637 36.6888C79.0343 35.8549 79.075 32.5569 79.0544 29.3255L79.0173 23.4727L76.7137 23.4384L74.41 23.4041L74.372 29.9836C74.338 35.8676 74.3106 36.6322 74.1115 37.2182C73.8035 38.1256 73.1988 38.8584 72.3779 39.3192C71.6953 39.7025 71.6508 39.7096 69.9751 39.7096C68.3261 39.7096 68.2451 39.6972 67.6034 39.3432C66.8441 38.9245 66.3877 38.3869 66.0053 37.4606C65.7471 36.8356 65.7374 36.5979 65.7017 30.1122L65.6649 23.4097H63.3305H60.9961L60.9983 30.1751ZM88.5709 23.7559C88.4821 23.9462 88.3064 24.3852 88.1807 24.7313C88.055 25.0775 87.5751 26.3236 87.1141 27.5004C86.6533 28.6773 85.6279 31.3394 84.8356 33.4162C84.0433 35.4931 83.1601 37.787 82.8729 38.5139C82.5857 39.2408 82.2447 40.1187 82.1151 40.4648C81.9856 40.811 81.7119 41.5304 81.5069 42.0636C81.3018 42.5968 81.1652 43.0641 81.2034 43.102C81.2415 43.1399 82.309 43.171 83.5756 43.171C85.9775 43.171 86.0471 43.156 86.2027 42.6046C86.2418 42.4661 86.5087 41.6024 86.7958 40.6851L87.318 39.0174H91.5283H95.7386L96.075 39.9928C97.0821 42.9117 97.1086 42.972 97.4267 43.0604C97.8246 43.171 100.702 43.192 101.551 43.0905L102.207 43.012L101.947 42.3678C101.804 42.0134 101.526 41.2987 101.329 40.7795C101.132 40.2603 100.806 39.4107 100.604 38.8915C100.403 38.3723 99.9202 37.1262 99.5323 36.1224C99.1445 35.1186 98.5619 33.6176 98.2377 32.7869C97.9135 31.9562 97.4344 30.7101 97.1731 30.0178C96.1766 27.3778 94.9035 24.0831 94.7525 23.7533L94.5952 23.4097H91.6638H88.7325L88.5709 23.7559ZM104.94 23.5601C104.906 23.6505 104.892 28.0857 104.91 33.4162L104.943 43.1081H107.282H109.622L109.655 39.4894L109.689 35.8707H111.564C113.193 35.8707 113.465 35.8996 113.631 36.0909C113.736 36.212 114.151 36.9059 114.553 37.6328C114.956 38.3597 115.467 39.266 115.689 39.6467C115.911 40.0275 116.427 40.9337 116.836 41.6606C117.244 42.3875 117.638 43.0239 117.71 43.0747C117.874 43.1895 122.511 43.2022 122.626 43.0882C122.671 43.0426 122.66 42.9436 122.6 42.8679C122.54 42.7923 121.566 41.0879 120.436 39.0803C119.305 37.0727 118.356 35.3897 118.328 35.3403C118.299 35.2908 118.576 35.0992 118.944 34.9146C121.571 33.5951 122.729 30.9015 121.958 27.9014C121.415 25.7861 119.939 24.393 117.526 23.7166C116.796 23.5118 116.052 23.4811 110.854 23.4411C106.126 23.4046 104.991 23.4275 104.94 23.5601ZM124.355 25.1697V26.9297L127.611 26.9634L130.868 26.997L130.931 35.0525L130.994 43.1081L133.365 43.1423L135.735 43.1765L135.768 35.0868L135.8 26.997L138.993 26.9634L142.187 26.9297V25.1697V23.4097H133.271H124.355V25.1697ZM145.098 29.7975C145.101 37.5996 145.174 38.2535 146.219 39.859C147.442 41.7381 149.532 43.0373 151.956 43.426C153.423 43.6613 156.292 43.5266 157.424 43.1695C160.196 42.2947 162.068 40.6412 162.835 38.3905C163.108 37.5883 163.115 37.4112 163.152 30.4898L163.19 23.4097H160.785H158.38L158.346 30.1779L158.311 36.9462L157.905 37.7614C157.201 39.1765 156.119 39.7611 154.192 39.7684C152.761 39.7738 151.928 39.5198 151.207 38.8581C149.922 37.6795 149.904 37.5546 149.902 29.8605L149.901 23.4097H147.498H145.095L145.098 29.7975ZM109.769 27.018C109.723 27.064 109.685 28.2818 109.685 29.7241V32.3464H112.273C114.552 32.3464 114.941 32.3163 115.538 32.0942C116.71 31.6577 117.157 30.9999 117.161 29.7061C117.166 28.1727 116.564 27.4424 115.028 27.1184C114.152 26.9335 109.935 26.853 109.769 27.018ZM91.2414 28.413C91.0965 28.8111 90.4997 30.4961 89.9152 32.1576L88.8524 35.1784L91.5097 35.2124C92.9711 35.2311 94.1921 35.2213 94.223 35.1906C94.2538 35.1599 93.8705 33.9835 93.3711 32.5763C92.8717 31.1691 92.2832 29.4946 92.0635 28.855C91.8437 28.2155 91.628 27.6915 91.5844 27.6907C91.5406 27.6899 91.3864 28.0149 91.2414 28.413Z" fill="#01204A"/>
<path d="M30.5001 41L44.5 55H16.5L30.5001 41Z" fill="#D10E20"/>
</g>
<defs>
<clipPath id="clip0_1887_4130">
<rect width="55" height="46" fill="white" transform="translate(5 9)"/>
</clipPath>
</defs>
</svg>
